<svg xmlns="http://www.w3.org/2000/svg" xmlns:xlink="http://www.w3.org/1999/xlink" viewBox="0 0 368.3 137.5"><defs><linearGradient id="a" x1="6.85" y1="21.25" x2="276.44" y2="21.25" gradientUnits="userSpaceOnUse"><stop offset="0" stop-color="#23b5e9"/><stop offset="1" stop-color="#0061a0"/></linearGradient><linearGradient id="b" x1="6.85" y1="74.78" x2="276.44" y2="74.78" xlink:href="#a"/><linearGradient id="c" x1="32.82" y1="131.82" x2="321.02" y2="131.82" xlink:href="#a"/><linearGradient id="d" x1="32.82" y1="131.82" x2="321.02" y2="131.82" xlink:href="#a"/><linearGradient id="e" x1="32.82" y1="131.83" x2="321.02" y2="131.83" xlink:href="#a"/><linearGradient id="f" x1="32.82" y1="128.11" x2="321.01" y2="128.11" xlink:href="#a"/><linearGradient id="g" x1="32.82" y1="131.82" x2="321.01" y2="131.82" xlink:href="#a"/><linearGradient id="h" x1="32.82" y1="131.85" x2="321.02" y2="131.85" xlink:href="#a"/><linearGradient id="i" x1="32.82" y1="131.82" x2="321.02" y2="131.82" xlink:href="#a"/><linearGradient id="j" x1="32.82" y1="131.83" x2="321.02" y2="131.83" xlink:href="#a"/><linearGradient id="k" x1="32.82" y1="131.83" x2="321.01" y2="131.83" xlink:href="#a"/><linearGradient id="l" x1="32.81" y1="136.5" x2="321.02" y2="136.5" xlink:href="#a"/><linearGradient id="m" x1="32.82" y1="131.83" x2="321.02" y2="131.83" xlink:href="#a"/><linearGradient id="n" x1="32.82" y1="131.86" x2="321.02" y2="131.86" xlink:href="#a"/><linearGradient id="o" x1="32.82" y1="131.83" x2="321.02" y2="131.83" xlink:href="#a"/><linearGradient id="p" x1="32.82" y1="131.83" x2="321.01" y2="131.83" xlink:href="#a"/><linearGradient id="q" x1="32.82" y1="131.83" x2="321.02" y2="131.83" xlink:href="#a"/><linearGradient id="r" x1="32.82" y1="131.82" x2="321.02" y2="131.82" xlink:href="#a"/><linearGradient id="s" x1="32.82" y1="131.83" x2="321.02" y2="131.83" xlink:href="#a"/><linearGradient id="t" x1="32.82" y1="131.83" x2="321.02" y2="131.83" xlink:href="#a"/><linearGradient id="u" x1="32.82" y1="131.83" x2="321.02" y2="131.83" xlink:href="#a"/><linearGradient id="v" x1="32.82" y1="131.83" x2="321.02" y2="131.83" xlink:href="#a"/><linearGradient id="w" x1="32.82" y1="136.5" x2="321.02" y2="136.5" xlink:href="#a"/></defs><path d="M154.1,104h12.8V80.5h23.7V104h12.9V45.5H190.6V68.7H166.9V45.5H154.1V104m79.1,1c13.9,0,24.3-10.4,24.3-23.3v-.2c0-12.8-10.3-23.1-24.2-23.1S209,68.8,209,81.7v.2C209,94.7,219.3,105,233.2,105Zm.1-10.9c-7,0-11.8-5.8-11.8-12.4v-.2c0-6.6,4.4-12.2,11.7-12.2s11.7,5.8,11.7,12.4v.2C244.9,88.5,240.6,94.1,233.3,94.1Zm30,25.7H276V98.2a17.1,17.1,0,0,0,13.9,6.6c10.6,0,20.4-8.1,20.4-23.1v-.2c0-14.9-9.9-23.1-20.4-23.1-6.6,0-10.8,3.1-13.9,7.3V59.2H263.3Zm23.4-25.7c-5.9,0-10.9-5-10.9-12.4v-.2c0-7.4,5-12.3,10.9-12.3s10.9,4.9,10.9,12.3v.2C297.6,89.2,292.6,94.1,286.7,94.1ZM339.2,105c8.1,0,14.1-3.2,18.3-8.3l-7.3-6.5c-3.5,3.3-6.6,4.6-10.8,4.6s-9.7-3-11-8.7h31.2c.1-1.2.2-2.4.2-3.4,0-12.7-6.9-24.3-21.8-24.3-13.1,0-22.2,10.5-22.2,23.3v.2C315.8,95.6,325.8,105,339.2,105ZM328.3,78.1c1-5.7,4.4-9.5,9.7-9.5s8.6,3.8,9.4,9.5Z" transform="translate(0 0)" style="fill:#f89921"/><path d="M147.9,8.7l-3.4.9,4.6-1Zm-25.6,9.1c.4-.4,1.5-.8,1.2-1.1,1.4-.4,1.2.1,2.2-.1s5.8-2.3,7.5-3.3a9.4,9.4,0,0,1-1.8.6c-3.7.9-8.3,3.3-11.2,3.5C121,17.6,119.2,19,122.3,17.8Zm15.4-6.2c-1.3.8-3.9.8-5.7,1.6l-.6.7C135.1,11.8,136.4,13.3,137.7,11.6Zm-35.5,25-2.1.5C100.3,37.2,100.9,37.2,102.2,36.6ZM108.6,23l.9-.3Zm169.1,9.5h0l-.4-.2c.2-.1.2-.2.2-.3l-1.1.5.6.4.7-.4Zm-1.4,0h.1c0-.1-.1-.1-.1-.2a19.1,19.1,0,0,0-.4-2.1h0a3.8,3.8,0,0,1,1.6,1.9c5-2.3-1.8.8,1.1-.6h-.1l-.3-.2-.6-.5-1.2-1-.7-.5a28.1,28.1,0,0,0-6.2-11.6c-7.2-8.1-17.8-11.9-20.1-12.3.7.3,1.3.6,1,.6-13-4.5-28.1-6.1-41.1-5.8,2,.1,2,.4,2,.8a221,221,0,0,0-45.7,4.4h-.3l-4.3.9,1.5-.8a11,11,0,0,1,3-.2c.4-.3,1.2-.7.2-.8C162.7,5,158,6,157.4,7h.2l-3,.7-.9.2a7.2,7.2,0,0,1,3.8-1.7c-1.7,0-2.1.5-3.8.7l-2,1.3,1.4-.5.2.3A240.9,240.9,0,0,0,113,22.1h0c-2.4.3-6.9,2.8-7.8,2.7s1.3-.1-.3.9-2.4.8-4.1,1.2l-1.2,1.3c-.6-.6-3.1,1-5.8,2.8,3.3-1.7,6.8-3.2,10.6-5-4.5,3.1-9.4,4.7-14,7.8-2.1,2,2.4-1.2,2.8-1.1h0l-2.3,1.5-.4.3L88.2,36h0l-1.2.8c-.5,0-1.1-.7-1.9,0l-3,1.3c.2.2,0,.6-.4,1h-.1c.5,1-1.3-2.1,1.2,2.2H83l.4-.2,1-.4,3.9-1.2h-.1c-.6.3-.5.3-.1.2a6.3,6.3,0,0,1-4,1.9l-.8.4h-.1c-.5-.8,0,0,.1.2h0l.5-.2,2.2-.5a27,27,0,0,0,5.4-1.9c-1.4.6-1,0-.3-.5,2.8-.6,7-2.5,9.8-3.3-.2-.1-.2-.2-.2-.3a49,49,0,0,1,6-1.2c10.2-2.4,23.9-6.8,32.9-7.3,2.8.1-2.7,1.2-1.6,1.3,9.6-3.2,12.1-5.2,10.7-6.9l-1.4.4c0-.1-.1-.4-1-.4l2.4-.4a297.8,297.8,0,0,1,49.2-4.3c-3.6.1-8.1.2-12.5.5-9.2.6-17.8,1.8-16.6,2.2-.6-.3,7.3-.9,14.2-1.3h-.2c-5.5.8-21.9,2.5-17.1,2.1-.3.9-2.9.6-2.7,1.4a140.3,140.3,0,0,1-13.9,2c8.7-.2,18.5-1.1,29-1.9,1.2-.2,2.2-.5.5-.6s-4,.1-2.1-.4-.3.6,3.1-.2h-1.7a21.4,21.4,0,0,0,7-1.4c13.2.1,27.7-1.5,39,1.1,1.3-.2,2.6-.2,4-.3s.5.8,2.4.9c-.7-.2-1.9-.4-1.6-.5,2.9.5,5.8.9,8.7,1.5l-.8-.6c2.6,1,7.8,1.3,10.5,2.8.1-.2,2,.1,1.9-.2,7.4,2.6,16,5.3,21.4,9.5v1.6h0l1.3-.6h.1c-.2-.3.1-.3.4-.2h.2l.5.4a.5.5,0,0,0-.4.2v.3h0l.7-.3c1,.8-.3.1,0,.7s.3,0,.6.1l.6.3.3.2h0l1.9-.9h0V35a7.7,7.7,0,0,1-.2-1.5l.9-.4H277l-.6.3A1.7,1.7,0,0,1,276.3,32.5Zm-194,7.6h.3c-.1.1-.2.1-.2.2A.1.1,0,0,1,82.3,40.1Zm1.4,0c-.5,0-.9.5-1.3.1h.2l1.8-.7c-.1.2,0,.4,0,.5ZM82.6,40v-.8c1.6-1.3,1.8-1.1,1.7-.5Zm29.5-17.4-2.9,1.3-2.1.7h0C108.2,23.3,110.8,22.9,112.1,22.6Zm33.5-.8c-3.1.8.9.5-.7,1-3.7-.9-10.3,3.1-14.3,2A397.1,397.1,0,0,0,86.3,38.9H87l-.9.4.4-.3c-1,.6-1.4.5-1.4.2a298.7,298.7,0,0,1,60.6-17.4A.1.1,0,0,1,145.6,21.8Zm37.7-3.4h.9Zm8.8-.5h-2.7l3.8-.2Zm12.9-.7-.2-.3h2ZM211.5.8h0Zm4.3.1a4.9,4.9,0,0,1,3.1.2Zm8.8,17.4-2-.3,4.8.6Zm17.2,3.8c-2.1-1-3.3-.4-5-1.3l1.1-.3c-1.7-.3-5.9-1.3-7.8-1.4h0q6.2.9,11.7,2.1C241.1,21.2,243.9,22.2,241.8,22.1Zm.4-.9,5.7,1.4h.1A37.5,37.5,0,0,1,242.2,21.2Zm30.2,13.2h-.2l-.4.2v.2h-.1v.5h0c1.4-.7-.3.1-.5.2l1.2-.5a1.3,1.3,0,0,0-.1-.6ZM88.7,33.8a57.4,57.4,0,0,0,5.1-2.9l-.9.4a69.5,69.5,0,0,0-6.6,3.6l-.5.3a7.9,7.9,0,0,0,3-1.1C88.9,33.9,88.9,33.7,88.7,33.8Zm-7.6,4.7h.2l.4-.3L83.2,37a15.1,15.1,0,0,1,2.6-1.8,8.3,8.3,0,0,0-4.6,1.9c2.3-1.3-1.1,1.4.8.4l-.7.6-.2.2h-.2l-.3-.6h0c-.3-.5-.3-.4,0,0h0c.7,1.3,3,5.2,2.7,4.6h0l-2.2-3.8Zm2.2,3.9Z" transform="translate(0 0)" style="fill:url(#a)"/><path d="M29.7,105c17.8,0,29.9-14.1,29.9-30.2.1-.1.1-.1,0-.2,0-16.1-11.9-30.1-29.7-30.1S0,58.7,0,74.8H0C0,91.1,11.9,105,29.7,105m.2-6.1C16.5,98.9,6.8,88.1,6.8,74.8v-.2c0-13.3,9.6-24,22.9-24S52.8,61.5,52.8,74.8h0C52.8,88.2,43.3,98.9,29.9,98.9ZM64.1,104h6.5V79.3c0-8.1,5.5-13.5,12.9-13.5s12,5,12,13V104h6.4V77.2c0-10.3-6.1-17.3-16.6-17.3-7.4,0-11.9,3.8-14.7,8.4V60.8H64.1Zm50.3-19h34.2a19.4,19.4,0,0,0,.1-2.2c0-12.7-7.3-22.9-20.1-22.9s-20.7,10-20.7,22.6,9.7,22.5,21.5,22.5a22.1,22.1,0,0,0,17.8-8.1l-4-3.6a17.8,17.8,0,0,1-13.6,6.1C122,99.4,115.3,94.2,114.4,85Zm0-5.1c.9-8.4,6.6-14.6,14-14.6s13.1,6.7,13.8,14.6Z" transform="translate(0 0)" style="fill:url(#b)"/><path d="M32.8,131.9h0a5.5,5.5,0,0,1,5.5-5.7,5.9,5.9,0,0,1,4.1,1.5l-.8.9a4.7,4.7,0,0,0-3.3-1.2,4.3,4.3,0,0,0-4.2,4.5h0a4.3,4.3,0,0,0,4.4,4.6,5,5,0,0,0,3.1-1.1v-2.7H38.3v-1.2h4.5v4.4a6.6,6.6,0,0,1-4.4,1.7,5.4,5.4,0,0,1-5.6-5.6" transform="translate(0 0)" style="fill:url(#c)"/><path d="M48,131.9h0a5.5,5.5,0,0,1,5.6-5.7,5.6,5.6,0,0,1,5.6,5.7h0a5.6,5.6,0,0,1-5.6,5.7,5.5,5.5,0,0,1-5.6-5.6m9.9,0h0a4.3,4.3,0,0,0-4.3-4.5,4.3,4.3,0,0,0-4.3,4.5h0a4.4,4.4,0,0,0,4.3,4.6A4.3,4.3,0,0,0,57.9,131.9Z" transform="translate(0 0)" style="fill:url(#d)"/><path d="M64.6,126.3h3.8c3.5,0,5.9,2.4,5.9,5.5h0c0,3.1-2.4,5.5-5.9,5.5H64.6v-11m3.8,9.9a4.3,4.3,0,0,0,4.6-4.3h0a4.3,4.3,0,0,0-4.6-4.3H65.9v8.7Z" transform="translate(0 0)" style="fill:url(#e)"/><path d="M79,129.3c.8-.2,1.1-.7,1-1.3h-.5v-1.7h1.4v1.4a1.9,1.9,0,0,1-1.7,2.2l-.2-.6" transform="translate(0 0)" style="fill:url(#f)"/><path d="M85.7,135.7l.8-.9a5.2,5.2,0,0,0,3.7,1.6c1.5,0,2.5-.8,2.5-1.9h0c0-1.1-.6-1.6-2.9-2.1s-3.7-1.4-3.7-3.2h0c0-1.8,1.5-3,3.6-3a5.8,5.8,0,0,1,3.9,1.3l-.7,1a4.6,4.6,0,0,0-3.2-1.2c-1.4,0-2.3.8-2.3,1.8h0c0,1,.5,1.6,3,2.1s3.5,1.5,3.5,3.1h0c0,1.9-1.5,3.1-3.7,3.1a6.3,6.3,0,0,1-4.5-1.8" transform="translate(0 0)" style="fill:url(#g)"/><polyline points="106 126.3 107.3 126.3 110.5 135.5 113.5 126.3 114.5 126.3 117.5 135.5 120.7 126.3 122 126.3 118 137.4 117 137.4 114 128.5 110.9 137.4 109.9 137.4 106 126.3" style="fill:url(#h)"/><path d="M126,131.9h0a5.6,5.6,0,0,1,5.6-5.7,5.5,5.5,0,0,1,5.6,5.7h0a5.6,5.6,0,0,1-5.6,5.7,5.5,5.5,0,0,1-5.6-5.6m9.9,0h0a4.3,4.3,0,1,0-8.6,0h0a4.4,4.4,0,0,0,4.3,4.6A4.3,4.3,0,0,0,135.9,131.9Z" transform="translate(0 0)" style="fill:url(#i)"/><path d="M142.6,126.3h4.8a4.3,4.3,0,0,1,3.1,1.1,3.4,3.4,0,0,1,.9,2.2h0a3.3,3.3,0,0,1-3,3.2l3.3,4.5h-1.5l-3.2-4.2h-3.1v4.2h-1.3v-11m4.7,5.6c1.6,0,2.8-.8,2.8-2.2h0c0-1.3-1-2.1-2.8-2.1h-3.4v4.4Z" transform="translate(0 0)" style="fill:url(#j)"/><path d="M156.8,126.3h3.8c3.5,0,5.9,2.4,5.9,5.5h0c0,3.1-2.4,5.5-5.9,5.5h-3.8v-11m3.8,9.9a4.3,4.3,0,0,0,4.6-4.3h0a4.3,4.3,0,0,0-4.6-4.3h-2.5v8.7Z" transform="translate(0 0)" style="fill:url(#k)"/><rect x="171" y="135.7" width="1.4" height="1.65" style="fill:url(#l)"/><polyline points="185.5 126.3 193.5 126.3 193.5 127.5 186.8 127.5 186.8 131.2 192.8 131.2 192.8 132.3 186.8 132.3 186.8 136.2 193.6 136.2 193.6 137.3 185.5 137.3 185.5 126.3" style="fill:url(#m)"/><polyline points="197.9 126.3 199.3 126.3 203.2 135.8 207.2 126.3 208.5 126.3 203.8 137.4 202.7 137.4 197.9 126.3" style="fill:url(#n)"/><polyline points="213.5 126.3 221.4 126.3 221.4 127.5 214.7 127.5 214.7 131.2 220.7 131.2 220.7 132.3 214.7 132.3 214.7 136.2 221.5 136.2 221.5 137.3 213.5 137.3 213.5 126.3" style="fill:url(#o)"/><path d="M226.8,126.3h4.8a4.3,4.3,0,0,1,3.1,1.1,3.3,3.3,0,0,1,.8,2.2h0a3.2,3.2,0,0,1-3,3.2l3.4,4.5h-1.5l-3.2-4.2h-3.1v4.2h-1.3v-11m4.6,5.6c1.7,0,2.9-.8,2.9-2.2h0c0-1.3-1.1-2.1-2.8-2.1h-3.4v4.4Z" transform="translate(0 0)" style="fill:url(#p)"/><polyline points="244.1 133 239.5 126.3 241 126.3 244.7 131.8 248.4 126.3 249.9 126.3 245.3 133 245.3 137.3 244.1 137.3 244.1 133" style="fill:url(#q)"/><path d="M261.7,131.9h0a5.6,5.6,0,0,1,5.6-5.7,5.6,5.6,0,0,1,4.3,1.8l-.9.9a4.5,4.5,0,0,0-3.4-1.5,4.4,4.4,0,0,0-4.3,4.5h0a4.4,4.4,0,0,0,4.3,4.6,4.6,4.6,0,0,0,3.5-1.6l.9.8a6,6,0,0,1-4.4,1.9,5.5,5.5,0,0,1-5.6-5.6" transform="translate(0 0)" style="fill:url(#r)"/><polyline points="276.6 126.3 277.9 126.3 277.9 131.2 284.2 131.2 284.2 126.3 285.5 126.3 285.5 137.3 284.2 137.3 284.2 132.4 277.9 132.4 277.9 137.3 276.6 137.3 276.6 126.3" style="fill:url(#s)"/><rect x="291.5" y="126.3" width="1.2" height="11" style="fill:url(#t)"/><polyline points="298.8 126.3 300 126.3 300 136.2 306.2 136.2 306.2 137.3 298.8 137.3 298.8 126.3" style="fill:url(#u)"/><path d="M311.4,126.3h3.8a5.5,5.5,0,0,1,5.8,5.5h0a5.5,5.5,0,0,1-5.8,5.5h-3.8v-11m3.8,9.9a4.2,4.2,0,0,0,4.5-4.3h0a4.2,4.2,0,0,0-4.5-4.3h-2.6v8.7Z" transform="translate(0 0)" style="fill:url(#v)"/><rect x="325.5" y="135.7" width="1.4" height="1.65" style="fill:url(#w)"/><path d="M364,67a4.3,4.3,0,0,1-4.4-4.3,4.4,4.4,0,0,1,4.4-4.3,4.3,4.3,0,1,1,0,8.6Zm0-8.2a3.9,3.9,0,0,0-3.9,3.9,3.8,3.8,0,0,0,3.9,3.9,3.9,3.9,0,0,0,3.9-3.9A3.8,3.8,0,0,0,364,58.8Zm1,4.3,1.2,1.7h-1L364,63.3h-.9v1.5h-.9V60.3h2.1c1,0,1.7.5,1.7,1.5A1.2,1.2,0,0,1,365,63.1Zm-.8-2h-1.1v1.4h1.1c.6,0,.9-.3.9-.7S364.8,61.1,364.2,61.1Z" transform="translate(0 0)" style="fill:#f89921"/></svg>